<svg xmlns="http://www.w3.org/2000/svg" xmlns:xlink="http://www.w3.org/1999/xlink" width="500" zoomAndPan="magnify" viewBox="0 0 375 374.999991" height="500" preserveAspectRatio="xMidYMid meet" version="1.0"><defs><g/><clipPath id="7b60f8a93d"><path d="M 118.128906 99.101562 L 256.867188 99.101562 L 256.867188 237.488281 L 118.128906 237.488281 Z M 118.128906 99.101562 " clip-rule="nonzero"/></clipPath></defs><g clip-path="url(#7b60f8a93d)"><path fill="#ffffff" d="M 121.046875 144.703125 C 122.5 144.703125 123.675781 145.882812 123.675781 147.339844 L 123.675781 228.222656 L 168.320312 183.464844 C 169.347656 182.4375 171.015625 182.4375 172.042969 183.464844 C 173.066406 184.496094 173.066406 186.164062 172.042969 187.195312 L 122.90625 236.453125 C 122.15625 237.207031 121.023438 237.433594 120.039062 237.023438 C 119.058594 236.617188 118.417969 235.65625 118.417969 234.589844 L 118.417969 147.339844 C 118.417969 145.882812 119.59375 144.703125 121.046875 144.703125 Z M 253.921875 98.738281 C 255.375 98.738281 256.554688 99.917969 256.554688 101.375 L 256.554688 193.304688 C 256.554688 194.371094 255.910156 195.332031 254.929688 195.738281 C 253.945312 196.148438 252.816406 195.921875 252.0625 195.167969 L 206.214844 149.203125 C 205.1875 148.175781 205.1875 146.503906 206.214844 145.476562 C 207.242188 144.445312 208.90625 144.445312 209.933594 145.476562 L 251.292969 186.9375 L 251.292969 101.375 C 251.292969 99.917969 252.46875 98.738281 253.921875 98.738281 Z M 121.046875 98.738281 C 121.71875 98.738281 122.394531 98.996094 122.90625 99.511719 L 255.78125 232.726562 C 256.808594 233.753906 256.808594 235.421875 255.78125 236.453125 C 254.753906 237.484375 253.089844 237.484375 252.0625 236.453125 L 119.1875 103.238281 C 118.160156 102.210938 118.160156 100.539062 119.1875 99.511719 C 119.703125 98.996094 120.375 98.738281 121.046875 98.738281 " fill-opacity="1" fill-rule="nonzero"/></g><g fill="#fffbfa" fill-opacity="1"><g transform="translate(129.717155, 261.54845)"><g><path d="M 3.554688 0 C 3.738281 0 3.832031 -0.09375 3.832031 -0.28125 L 3.832031 -3.609375 L 7.210938 -3.609375 C 7.386719 -3.609375 7.488281 -3.710938 7.488281 -3.886719 L 7.488281 -5.570312 C 7.488281 -5.753906 7.386719 -5.847656 7.210938 -5.847656 L 3.832031 -5.847656 L 3.832031 -8.117188 L 7.851562 -8.117188 C 8.035156 -8.117188 8.132812 -8.214844 8.132812 -8.398438 L 8.132812 -10.214844 C 8.132812 -10.402344 8.035156 -10.496094 7.851562 -10.496094 L 1.320312 -10.496094 C 1.132812 -10.496094 1.039062 -10.402344 1.039062 -10.214844 L 1.039062 -0.28125 C 1.039062 -0.09375 1.132812 0 1.320312 0 Z M 3.554688 0 "/></g></g></g><g fill="#fffbfa" fill-opacity="1"><g transform="translate(149.553218, 261.54845)"><g><path d="M 3.554688 0 C 3.738281 0 3.832031 -0.09375 3.832031 -0.28125 L 3.832031 -10.214844 C 3.832031 -10.402344 3.738281 -10.496094 3.554688 -10.496094 L 1.320312 -10.496094 C 1.132812 -10.496094 1.039062 -10.402344 1.039062 -10.214844 L 1.039062 -0.28125 C 1.039062 -0.09375 1.132812 0 1.320312 0 Z M 3.554688 0 "/></g></g></g><g fill="#fffbfa" fill-opacity="1"><g transform="translate(165.624782, 261.54845)"><g><path d="M 4.832031 0 C 8.816406 0 10.550781 -1.960938 10.550781 -5.234375 C 10.550781 -8.5625 8.761719 -10.496094 4.832031 -10.496094 L 1.320312 -10.496094 C 1.132812 -10.496094 1.039062 -10.402344 1.039062 -10.214844 L 1.039062 -0.28125 C 1.039062 -0.09375 1.132812 0 1.320312 0 Z M 3.859375 -8.117188 L 4.84375 -8.117188 C 6.8125 -8.117188 7.757812 -7.09375 7.757812 -5.277344 C 7.757812 -3.457031 6.8125 -2.378906 4.84375 -2.378906 L 3.859375 -2.378906 Z M 3.859375 -8.117188 "/></g></g></g><g fill="#fffbfa" fill-opacity="1"><g transform="translate(188.016056, 261.54845)"><g><path d="M 3.5 0 C 3.683594 0 3.777344 -0.09375 3.777344 -0.28125 L 3.777344 -4.046875 L 6.144531 -1.285156 C 6.273438 -1.132812 6.410156 -1.132812 6.53125 -1.285156 L 8.929688 -4.074219 L 8.929688 -0.28125 C 8.929688 -0.09375 9.027344 0 9.210938 0 L 11.378906 0 C 11.5625 0 11.65625 -0.09375 11.65625 -0.28125 L 11.65625 -10.257812 C 11.65625 -10.777344 11.296875 -10.898438 10.972656 -10.496094 L 6.339844 -4.703125 L 1.734375 -10.496094 C 1.402344 -10.921875 1.050781 -10.777344 1.050781 -10.257812 L 1.050781 -0.28125 C 1.050781 -0.09375 1.148438 0 1.332031 0 Z M 3.5 0 "/></g></g></g><g fill="#fffbfa" fill-opacity="1"><g transform="translate(211.924067, 261.54845)"><g><path d="M 5.78125 -10.496094 C 5.570312 -10.925781 5.234375 -10.925781 5.023438 -10.496094 L 0.210938 -0.335938 C 0.121094 -0.136719 0.210938 0 0.417969 0 L 2.882812 0 C 3.035156 0 3.148438 -0.0820312 3.203125 -0.226562 L 3.546875 -1.105469 L 7.257812 -1.105469 L 7.597656 -0.226562 C 7.652344 -0.0820312 7.769531 0 7.921875 0 L 10.386719 0 C 10.59375 0 10.679688 -0.136719 10.59375 -0.335938 Z M 5.40625 -5.84375 L 6.4375 -3.203125 L 4.367188 -3.203125 Z M 5.40625 -5.84375 "/></g></g></g><g fill="#fffbfa" fill-opacity="1"><g transform="translate(233.939579, 261.54845)"><g><path d="M 3.554688 0 C 3.738281 0 3.832031 -0.09375 3.832031 -0.28125 L 3.832031 -3.539062 L 7.503906 -3.539062 L 7.503906 -0.28125 C 7.503906 -0.09375 7.597656 0 7.785156 0 L 10.019531 0 C 10.203125 0 10.296875 -0.09375 10.296875 -0.28125 L 10.296875 -10.214844 C 10.296875 -10.402344 10.203125 -10.496094 10.019531 -10.496094 L 7.785156 -10.496094 C 7.597656 -10.496094 7.503906 -10.402344 7.503906 -10.214844 L 7.503906 -5.917969 L 3.832031 -5.917969 L 3.832031 -10.214844 C 3.832031 -10.402344 3.738281 -10.496094 3.554688 -10.496094 L 1.320312 -10.496094 C 1.132812 -10.496094 1.039062 -10.402344 1.039062 -10.214844 L 1.039062 -0.28125 C 1.039062 -0.09375 1.132812 0 1.320312 0 Z M 3.554688 0 "/></g></g></g><g fill="#fffbfa" fill-opacity="1"><g transform="translate(151.739087, 274.029634)"><g><path d="M 2.925781 0.0898438 C 4.417969 0.0898438 5.410156 -1.023438 5.398438 -2.574219 L 2.773438 -2.574219 L 2.773438 -2.171875 L 4.941406 -2.171875 C 4.851562 -1.097656 4.074219 -0.335938 2.933594 -0.335938 C 1.722656 -0.335938 0.882812 -1.195312 0.882812 -2.449219 C 0.882812 -3.703125 1.714844 -4.5625 2.933594 -4.5625 C 3.808594 -4.5625 4.480469 -4.117188 4.789062 -3.386719 L 5.25 -3.386719 C 4.933594 -4.339844 4.046875 -4.992188 2.910156 -4.992188 C 1.476562 -4.992188 0.449219 -3.933594 0.449219 -2.449219 C 0.449219 -0.964844 1.476562 0.0898438 2.925781 0.0898438 Z M 2.925781 0.0898438 "/></g></g></g><g fill="#fffbfa" fill-opacity="1"><g transform="translate(160.363316, 274.029634)"><g><path d="M 0.792969 0 L 1.21875 0 L 1.21875 -1.839844 L 2.484375 -1.839844 L 3.800781 0 L 4.3125 0 L 2.980469 -1.875 C 3.753906 -2.007812 4.234375 -2.5625 4.234375 -3.375 C 4.234375 -4.304688 3.589844 -4.898438 2.605469 -4.898438 L 0.792969 -4.898438 Z M 1.21875 -2.246094 L 1.21875 -4.492188 L 2.5625 -4.492188 C 3.339844 -4.492188 3.800781 -4.066406 3.800781 -3.375 C 3.800781 -2.675781 3.339844 -2.246094 2.5625 -2.246094 Z M 1.21875 -2.246094 "/></g></g></g><g fill="#fffbfa" fill-opacity="1"><g transform="translate(167.951512, 274.029634)"><g><path d="M 2.976562 0.0898438 C 4.472656 0.0898438 5.503906 -0.953125 5.503906 -2.449219 C 5.503906 -3.949219 4.472656 -4.992188 2.976562 -4.992188 C 1.484375 -4.992188 0.449219 -3.949219 0.449219 -2.449219 C 0.449219 -0.953125 1.484375 0.0898438 2.976562 0.0898438 Z M 0.882812 -2.449219 C 0.882812 -3.710938 1.734375 -4.5625 2.976562 -4.5625 C 4.222656 -4.5625 5.074219 -3.710938 5.074219 -2.449219 C 5.074219 -1.195312 4.222656 -0.335938 2.976562 -0.335938 C 1.734375 -0.335938 0.882812 -1.195312 0.882812 -2.449219 Z M 0.882812 -2.449219 "/></g></g></g><g fill="#fffbfa" fill-opacity="1"><g transform="translate(176.701747, 274.029634)"><g><path d="M 2.574219 0.0859375 C 3.722656 0.0859375 4.425781 -0.671875 4.425781 -1.933594 L 4.425781 -4.898438 L 4.003906 -4.898438 L 4.003906 -1.953125 C 4.003906 -0.910156 3.484375 -0.328125 2.574219 -0.328125 C 1.667969 -0.328125 1.148438 -0.910156 1.148438 -1.953125 L 1.148438 -4.898438 L 0.726562 -4.898438 L 0.726562 -1.933594 C 0.726562 -0.671875 1.429688 0.0859375 2.574219 0.0859375 Z M 2.574219 0.0859375 "/></g></g></g><g fill="#fffbfa" fill-opacity="1"><g transform="translate(184.653955, 274.029634)"><g><path d="M 0.792969 0 L 1.21875 0 L 1.21875 -1.679688 L 2.34375 -1.679688 C 3.480469 -1.679688 4.152344 -2.273438 4.152344 -3.289062 C 4.152344 -4.304688 3.480469 -4.898438 2.34375 -4.898438 L 0.792969 -4.898438 Z M 1.21875 -2.070312 L 1.21875 -4.492188 L 2.339844 -4.492188 C 3.253906 -4.492188 3.722656 -4.082031 3.722656 -3.28125 C 3.722656 -2.484375 3.253906 -2.070312 2.339844 -2.070312 Z M 1.21875 -2.070312 "/></g></g></g><g fill="#fffbfa" fill-opacity="1"><g transform="translate(191.934145, 274.029634)"><g><path d="M 2.367188 0.0898438 C 3.429688 0.0898438 4.101562 -0.425781 4.101562 -1.246094 C 4.101562 -1.945312 3.625 -2.378906 2.386719 -2.667969 C 1.359375 -2.898438 0.992188 -3.199219 0.992188 -3.6875 C 0.992188 -4.226562 1.457031 -4.585938 2.246094 -4.585938 C 3.066406 -4.585938 3.5625 -4.191406 3.597656 -3.5 L 4.019531 -3.5 C 3.984375 -4.445312 3.324219 -4.992188 2.246094 -4.992188 C 1.203125 -4.992188 0.566406 -4.472656 0.566406 -3.6875 C 0.566406 -2.953125 1.078125 -2.546875 2.28125 -2.269531 C 3.269531 -2.050781 3.667969 -1.75 3.667969 -1.238281 C 3.667969 -0.671875 3.171875 -0.316406 2.367188 -0.316406 C 1.519531 -0.316406 0.953125 -0.734375 0.910156 -1.457031 L 0.488281 -1.457031 C 0.523438 -0.511719 1.246094 0.0898438 2.367188 0.0898438 Z M 2.367188 0.0898438 "/></g></g></g><g fill="#fffbfa" fill-opacity="1"><g transform="translate(199.333336, 274.029634)"><g/></g></g><g fill="#fffbfa" fill-opacity="1"><g transform="translate(204.009451, 274.029634)"><g><path d="M 0.792969 0 L 3.703125 0 L 3.703125 -0.40625 L 1.21875 -0.40625 L 1.21875 -4.898438 L 0.792969 -4.898438 Z M 0.792969 0 "/></g></g></g><g fill="#fffbfa" fill-opacity="1"><g transform="translate(210.750624, 274.029634)"><g><path d="M 0.792969 0 L 3.703125 0 L 3.703125 -0.40625 L 1.21875 -0.40625 L 1.21875 -4.898438 L 0.792969 -4.898438 Z M 0.792969 0 "/></g></g></g><g fill="#fffbfa" fill-opacity="1"><g transform="translate(217.491798, 274.029634)"><g><path d="M 2.933594 0.0898438 C 4.089844 0.0898438 5.03125 -0.589844 5.335938 -1.644531 L 4.886719 -1.644531 C 4.613281 -0.832031 3.855469 -0.335938 2.941406 -0.335938 C 1.742188 -0.335938 0.882812 -1.195312 0.882812 -2.449219 C 0.882812 -3.703125 1.742188 -4.5625 2.941406 -4.5625 C 3.835938 -4.5625 4.5625 -4.089844 4.84375 -3.3125 L 5.292969 -3.3125 C 4.96875 -4.339844 4.054688 -4.992188 2.933594 -4.992188 C 1.492188 -4.992188 0.449219 -3.941406 0.449219 -2.449219 C 0.449219 -0.960938 1.492188 0.0898438 2.933594 0.0898438 Z M 2.933594 0.0898438 "/></g></g></g></svg>